PathFileType	4	(X/Y/Z)	C:/Users/beibeiliu/ov580/test_trc\sequence.45_training_dense_right.trc
DataRate	CameraRate	NumFrames	NumMarkers	Units	OrigDataRate	OrigDataStartFrame	OrigNumFrames
120	120	8	19	mm	120	29	84
Frame#	Time	ThumbCMC			ThumbMCP			ThumbIP			ThumbTip			IndexMCP			IndexPIP			IndexTip			MiddleMCP			MiddlePIP			MiddleTip			RingMCP			RingPIP			RingTip			PinkyMCP			PinkyPIP			PinkyTip			BackHand1			BackHand2			BackHand3	
		X0	Y0	Z0	X1	Y1	Z1	X2	Y2	Z2	X3	Y3	Z3	X4	Y4	Z4	X5	Y5	Z5	X6	Y6	Z6	X7	Y7	Z7	X8	Y8	Z8	X9	Y9	Z9	X10	Y10	Z10	X11	Y11	Z11	X12	Y12	Z12	X13	Y13	Z13	X14	Y14	Z14	X15	Y15	Z15	X16	Y16	Z16	X17	Y17	Z17	X18	Y18	Z18	
28	0.233333	103.119	136.293	51.2202	82.676	158.889	37.9374	62.9873	164.958	30.9365	36.3431	163.133	30.9094	63.5615	130.391	-2.40929	47.7325	150.993	-3.04415	58.6711	164.908	25.4162	45.3127	123.731	6.83511	32.2528	148.52	10.7303	51.7548	154.901	38.1334	33.996	124.267	25.5479	31.6735	148.029	36.6164	52.1702	147.361	54.802	30.2561	118.654	43.9434	32.3742	141.964	51.9743	53.1806	142.494	65.6591	71.0805	93.6839	49.2439	87.6821	88.7796	72.0507	97.6357	104.483	43.2062	
29	0.241667	103.743	141.346	54.532	77.8584	162.135	52.1144	51.2143	166.471	46.0778	29.5562	149.536	48.1901	55.2974	139.271	4.67981	36.5032	154.004	9.96995	42.8818	163.012	37.6447	41.5136	127.367	11.273	25.2932	144.775	27.5607	48.6838	150.515	50.1331	36.9237	117.344	30.0291	29.6079	138.576	47.8202	52.6262	139.144	63.7443	37.3865	107.237	44.5155	32.9008	127.268	61.1717	52.7874	130.551	73.9273	80.2183	95.0624	39.1545	101.601	87.8097	58.2817	106.214	114.98	39.0986	
30	0.25	102.629	143.969	56.692	73.2213	157.513	62.0912	50.0817	154.712	62.4745	31.6673	139.069	63.4633	55.0547	143.05	13.0902	30.7634	146.864	26.0009	36.5435	152.812	52.3251	42.3872	124.508	19.9872	23.9965	135.073	41.0521	46.8071	136.672	62.943	39.0339	110.354	34.2531	31.0703	125.857	55.3892	55.2434	124.688	73.9087	45.1162	98.9434	45.7069	38.9602	114.313	63.1491	56.7746	120.05	76.5828	88.7779	94.5913	36.6089	110.888	92.211	49.8225	109.878	118.468	36.5421	
31	0.258333	106.849	138.368	60.4554	73.6811	148.636	69.0602	52.2914	144.514	70.9138	32.2309	126.543	72.9634	56.6049	134.009	20.6783	31.2091	140.89	35.7858	39.7837	141.289	63.672	43.2639	117.915	25.231	26.7401	123.586	48.6107	52.525	129.159	71.2397	43.4567	104.392	38.9009	36.1385	113.315	63.069	56.7208	119.311	77.1195	50.9544	87.8523	48.5725	43.9506	102.024	66.3093	63.7188	112.157	78.7118	94.1866	93.2213	35.1188	121.25	90.7591	46.1099	111.932	113.69	36.6302	
32	0.266667	113.589	135.521	62.7984	77.381	144.04	70.5361	53.0955	140.199	71.3078	36.5872	119.187	72.3895	61.9573	130.31	20.7559	35.7546	138.588	37.7207	42.7641	138.414	62.4608	52.3173	113.26	25.5418	32.3308	121.74	48.6581	55.3522	119.53	71.9189	50.4599	97.5308	37.8169	40.4617	108.037	60.9309	63.4511	109.932	78.9966	57.7342	82.7832	46.2446	48.1963	92.3471	68.1909	71.2696	104.805	78.5287	100.961	85.1548	34.2797	122.838	82.2613	47.002	114.67	109.513	34.9597	
33	0.275	115.316	134.467	62.2459	83.2161	143.504	68.4665	58.4469	137.312	65.8264	38.9568	115.248	61.317	68.0527	133.401	13.3063	43.8504	134.839	25.1831	46.2922	132.193	53.9192	62.7694	109.048	18.2285	39.0991	117.065	37.2275	57.3036	119.316	63.0115	56.9036	95.2482	30.4525	46.7026	103.308	52.7897	64.9123	105.658	71.5698	64.24	81.6745	39.7638	55.2074	91.3099	59.9415	76.3867	102.372	76.9394	112.072	87.6559	30.5258	131.152	87.4729	45.5235	126.245	115.312	38.0848	
34	0.283333	113.048	142.461	61.2814	78.0206	144.547	58.7869	62.4518	133.027	51.3368	46.1227	110.264	41.0299	83.0631	135.455	5.70587	53.0172	136.723	13.0065	50.9094	131.906	38.7151	76.0767	120.755	4.27175	52.3984	116.852	18.3424	67.196	118.09	49.4356	76.6307	101.727	15.3706	59.5475	102.438	33.8812	75.0745	111.099	59.4313	82.4742	86.8964	26.4752	69.0227	92.2386	45.6391	81.8118	105.788	62.9643	127.282	99.7859	31.4591	144.18	102.907	51.5949	132.876	129.106	39.0267	
35	0.291667	107.213	153.258	67.0081	74.0322	144.199	49.8402	61.0732	131.695	36.4436	63.1406	110.435	22.3572	89.287	154.982	0.317628	68.3445	140.203	-0.620762	57.1245	132.481	25.134	92.1286	133.975	-5.07588	67.8797	120.936	3.7312	75.0957	117.231	35.2104	98.3197	112.966	4.85528	74.1438	110.072	21.1995	84.2533	111.747	48.7984	101.443	101.327	14.3505	86.3181	99.7773	27.9185	92.4078	110.345	52.1029	139.937	129.027	32.7772	151.296	127.727	59.7666	136.131	149.967	46.9131	
